<svg width="247" height="44" viewBox="0 0 247 44" fill="none" xmlns="http://www.w3.org/2000/svg">
<path d="M0.319336 31.7285C0.319336 31.4844 0.400716 31.2646 0.563477 31.0693C0.742513 30.8577 0.970378 30.752 1.24707 30.752C1.52376 30.752 1.75163 30.8333 1.93066 30.9961C1.93066 30.9961 2.13411 31.1833 2.54102 31.5576C4.23372 33.0387 6.60189 33.7793 9.64551 33.7793C11.6963 33.7793 13.0146 33.3561 13.6006 32.5098C13.7633 32.2819 13.8447 32.054 13.8447 31.8262C13.8447 31.582 13.7959 31.3542 13.6982 31.1426C13.6169 30.9147 13.4297 30.6462 13.1367 30.3369C12.8438 30.0114 12.4287 29.6289 11.8916 29.1895L9.74316 27.4561C6.19499 24.6891 3.76172 22.443 2.44336 20.7178C1.23893 19.139 0.636719 17.5277 0.636719 15.8838C0.636719 13.8167 1.58887 12.0833 3.49316 10.6836C5.46257 9.21875 8.00977 8.48633 11.1348 8.48633C13.332 8.48633 15.0654 8.73861 16.335 9.24316C17.6045 9.74772 18.4997 10.2116 19.0205 10.6348C19.5413 11.0417 19.8018 11.416 19.8018 11.7578C19.8018 12.4577 19.5251 12.8076 18.9717 12.8076C18.7113 12.8076 18.4671 12.7181 18.2393 12.5391C18.0277 12.3438 17.5964 12.0264 16.9453 11.5869C16.2943 11.1312 15.4316 10.7731 14.3574 10.5127C13.2832 10.2523 12.2822 10.1221 11.3545 10.1221C10.4268 10.1221 9.76758 10.2686 9.37695 10.5615C9.0026 10.8545 8.81543 11.1475 8.81543 11.4404C8.81543 11.7171 8.8724 11.9857 8.98633 12.2461C9.10026 12.4902 9.31185 12.7832 9.62109 13.125C10.3372 13.9714 11.4847 14.9723 13.0635 16.1279C14.6423 17.2835 15.9769 18.3415 17.0674 19.3018C18.1579 20.262 19.0124 21.1491 19.6309 21.9629C20.7539 23.4277 21.3154 24.9089 21.3154 26.4062C21.3154 27.9036 21.0387 29.1895 20.4854 30.2637C19.932 31.3216 19.1426 32.2331 18.1172 32.998C15.9525 34.6419 13.0635 35.4639 9.4502 35.4639C6.55306 35.4639 4.13607 34.9105 2.19922 33.8037C0.945964 33.1038 0.319336 32.4121 0.319336 31.7285ZM43.5566 33.3887C41.4733 34.7721 39.1621 35.4639 36.623 35.4639C33.2539 35.4639 30.5521 34.6175 28.5176 32.9248C26.4017 31.1833 25.3438 28.7663 25.3438 25.6738C25.3438 22.9395 26.3936 20.6934 28.4932 18.9355C30.6416 17.1615 33.4655 16.2744 36.9648 16.2744C39.3086 16.2744 41.5059 16.722 43.5566 17.6172V10.9033C42.0755 10.4801 40.7653 10.2686 39.626 10.2686C38.5029 10.2686 37.5508 10.3174 36.7695 10.415C35.9883 10.5127 35.2477 10.6592 34.5479 10.8545C33.0342 11.2777 31.8867 11.8473 31.1055 12.5635C30.6497 12.9867 30.2347 13.1982 29.8604 13.1982C29.486 13.1982 29.2012 13.1087 29.0059 12.9297C28.8105 12.7344 28.7129 12.5228 28.7129 12.2949C28.7129 12.0671 28.7536 11.8636 28.835 11.6846C28.9163 11.4893 29.071 11.2939 29.2988 11.0986C29.7871 10.6755 30.6009 10.2523 31.7402 9.8291C34.1003 8.93392 36.4684 8.48633 38.8447 8.48633C46.0713 8.48633 50.6855 10.2116 52.6875 13.6621C53.5664 15.1921 54.0059 17.2021 54.0059 19.6924V35H43.5566V33.3887ZM43.5566 19.5215C41.5059 18.5286 39.4632 18.0322 37.4287 18.0322C37.1032 18.0322 36.7939 18.0566 36.501 18.1055V33.6328C36.5824 33.6491 36.6719 33.6572 36.7695 33.6572C36.8672 33.6572 36.9648 33.6572 37.0625 33.6572C39.2923 33.6572 41.457 32.8678 43.5566 31.2891V19.5215ZM66.1885 40.7617C67.1813 40.4525 67.873 40.0537 68.2637 39.5654C68.8171 38.9144 69.4844 37.7425 70.2656 36.0498L70.8271 34.7559L57.5215 8.92578H68.6299L75.5635 23.6719L79.5674 14.3213C80.2998 12.6123 80.7799 11.3102 81.0078 10.415C81.2357 9.51986 81.4554 8.97461 81.667 8.7793C81.8949 8.58398 82.1634 8.48633 82.4727 8.48633C82.7982 8.48633 83.0505 8.58398 83.2295 8.7793C83.4085 8.97461 83.498 9.16992 83.498 9.36523C83.498 9.56055 83.4736 9.77214 83.4248 10C83.3923 10.2116 83.3109 10.5046 83.1807 10.8789C83.0667 11.237 82.8958 11.6927 82.668 12.2461L72.5361 35.7324C71.3317 38.5645 70.1761 40.5583 69.0693 41.7139C68.1253 42.7393 67.165 43.252 66.1885 43.252C65.2282 43.252 64.748 42.9102 64.748 42.2266C64.748 41.5592 65.2282 41.071 66.1885 40.7617ZM94.4355 34.6338C93.5729 35.1872 92.6126 35.4639 91.5547 35.4639C90.513 35.4639 89.6585 35.3174 88.9912 35.0244C88.3402 34.7477 87.7868 34.3815 87.3311 33.9258C86.387 32.9492 85.915 31.8343 85.915 30.5811C85.915 29.2301 86.4115 28.0827 87.4043 27.1387C88.4297 26.1784 89.7155 25.6982 91.2617 25.6982C93.1009 25.6982 94.5658 26.2598 95.6562 27.3828C96.7142 28.457 97.2432 29.8568 97.2432 31.582C97.2432 34.2025 96.3887 36.5299 94.6797 38.5645C93.8008 39.6387 93.109 40.2734 92.6045 40.4688C92.1162 40.6641 91.7337 40.7617 91.457 40.7617C90.6921 40.7617 90.3096 40.4036 90.3096 39.6875C90.3096 39.4271 90.3991 39.2562 90.5781 39.1748L91.4814 38.7842C92.3115 38.4098 93.1009 37.6774 93.8496 36.5869C94.1751 36.0824 94.3704 35.4313 94.4355 34.6338Z" fill="#3d3d3d"/>
<path d="M135.5 8.48633C141.229 8.48633 144.094 11.2695 144.094 16.8359V35H133.596V11.2451C133.303 11.0498 132.912 10.9521 132.424 10.9521C131.952 10.9521 131.455 11.0661 130.935 11.2939C130.414 11.5218 129.868 11.8392 129.299 12.2461C128.078 13.1413 126.996 14.2643 126.052 15.6152V35H115.554V0.454102H126.052V13.0518C128.835 10.0081 131.984 8.48633 135.5 8.48633ZM174.733 29.0674C175.368 29.0674 175.686 29.3604 175.686 29.9463C175.686 30.3857 175.401 30.9066 174.831 31.5088C172.259 34.1455 168.736 35.4639 164.26 35.4639C160.24 35.4639 156.854 34.2513 154.104 31.8262C151.255 29.3034 149.831 26.1133 149.831 22.2559C149.831 18.3171 151.117 15.0781 153.688 12.5391C156.407 9.83724 160.02 8.48633 164.528 8.48633C168.142 8.48633 171.177 9.58496 173.635 11.7822C176.288 14.1423 177.614 17.2428 177.614 21.084C177.614 21.6374 177.598 22.2233 177.565 22.8418H161.452V33.3154C162.559 33.5433 163.804 33.6572 165.188 33.6572C168.117 33.6572 170.616 32.6888 172.683 30.752C173.106 30.3288 173.407 29.9951 173.586 29.751C173.96 29.2952 174.343 29.0674 174.733 29.0674ZM168.215 10.7324C167.157 10.4232 165.961 10.2686 164.626 10.2686C163.291 10.2686 162.233 10.3581 161.452 10.5371V21.0596H168.215V10.7324ZM183.815 0.454102H194.313V35H183.815V0.454102ZM202.321 0.454102H212.819V35H202.321V0.454102ZM218.581 21.8164C218.581 19.8633 218.931 18.0892 219.631 16.4941C220.347 14.8828 221.324 13.4831 222.561 12.2949C225.23 9.75586 228.583 8.48633 232.619 8.48633C236.737 8.48633 240.09 9.80469 242.678 12.4414C245.152 14.9316 246.389 18.0811 246.389 21.8896C246.389 25.7145 245.119 28.9128 242.58 31.4844C239.96 34.1374 236.607 35.4639 232.521 35.4639C228.534 35.4639 225.23 34.2025 222.609 31.6797C219.924 29.0755 218.581 25.7878 218.581 21.8164ZM231.838 33.6328C231.968 33.6491 232.098 33.6572 232.229 33.6572H232.57C235.858 33.6572 238.617 32.64 240.847 30.6055C243.223 28.4082 244.411 25.5273 244.411 21.9629C244.411 18.4798 243.296 15.6559 241.066 13.4912C238.869 11.3428 236.029 10.2686 232.546 10.2686H232.18C232.066 10.2686 231.952 10.2767 231.838 10.293V33.6328Z" fill="#a52153"/>
</svg>
